<?xml version="1.0" encoding="UTF-8" standalone="no"?>
<svg viewBox="0 0 600 340" xmlns="http://www.w3.org/2000/svg">
  <style>
    text {
      font-family: -apple-system, BlinkMacSystemFont, 'Segoe UI', Roboto, Helvetica, Arial, sans-serif;
      font-weight: bold;
    }
    .subtitle {
      font-size: 16px;
      font-weight: normal;
      fill: rgba(255, 255, 255, 0.8);
    }
    .interface {
      fill: #fff;
      stroke: #ddd;
      stroke-width: 1;
    }
    .card {
      fill: #fff;
      stroke: #eee;
      filter: drop-shadow(0px 4px 6px rgba(0, 0, 0, 0.1));
    }
    .sleep-cycle {
      fill: none;
      stroke: #8b5cf6;
      stroke-width: 2;
      stroke-linecap: round;
    }
    .time-select {
      fill: #f8f9fa;
      stroke: #ddd;
    }
    .start {
      fill: rgba(99, 102, 241, 0.2);
    }
    .end {
      fill: rgba(139, 92, 246, 0.2);
    }
    .animate-float {
      animation: float 3s ease-in-out infinite;
    }
    @keyframes float {
      0%, 100% { transform: translateY(0); }
      50% { transform: translateY(-10px); }
    }
  </style>
  
  <rect width="600" height="340" fill="#6c5ce7"/>
  <rect x="0" y="0" width="600" height="340" fill="#6c5ce7" opacity="0.8"/>
  
  <!-- Background Elements -->
  <circle cx="450" cy="70" r="50" fill="#ffffff" opacity="0.05"/>
  <circle cx="100" cy="220" r="80" fill="#ffffff" opacity="0.05"/>
  
  <!-- Stars/Sleep Elements -->
  <g>
    <circle cx="120" cy="90" r="2" fill="#fff" opacity="0.7"/>
    <circle cx="140" cy="60" r="1" fill="#fff" opacity="0.5"/>
    <circle cx="180" cy="85" r="1.5" fill="#fff" opacity="0.6"/>
    <circle cx="220" cy="55" r="2" fill="#fff" opacity="0.7"/>
    <circle cx="245" cy="80" r="1" fill="#fff" opacity="0.5"/>
    <circle cx="380" cy="70" r="1.5" fill="#fff" opacity="0.6"/>
    <circle cx="420" cy="95" r="2" fill="#fff" opacity="0.7"/>
    <circle cx="460" cy="75" r="1" fill="#fff" opacity="0.5"/>
    <circle cx="500" cy="90" r="1.5" fill="#fff" opacity="0.6"/>
    
    <!-- Moon -->
    <circle cx="500" cy="70" r="30" fill="#ffffff" opacity="0.15"/>
    <circle cx="485" cy="60" r="10" fill="#6c5ce7"/>
  </g>
  
  <!-- Sleep Calculator Interface -->
  <g transform="translate(300, 180)">
    <!-- Main Interface Card -->
    <rect x="-200" y="-70" width="400" height="170" rx="10" class="interface"/>
    
    <!-- Time Selection -->
    <g transform="translate(-150, -40)">
      <rect x="-30" y="-20" width="60" height="90" rx="5" class="time-select"/>
      <text x="0" y="-5" fill="#6c5ce7" font-size="14" text-anchor="middle">10</text>
      <text x="0" y="25" fill="#6c5ce7" font-size="24" font-weight="bold" text-anchor="middle">11</text>
      <text x="0" y="55" fill="#6c5ce7" font-size="14" text-anchor="middle">12</text>
      
      <rect x="50" y="-20" width="60" height="90" rx="5" class="time-select"/>
      <text x="80" y="-5" fill="#6c5ce7" font-size="14" text-anchor="middle">15</text>
      <text x="80" y="25" fill="#6c5ce7" font-size="24" font-weight="bold" text-anchor="middle">30</text>
      <text x="80" y="55" fill="#6c5ce7" font-size="14" text-anchor="middle">45</text>
      
      <text x="130" y="25" fill="#6c5ce7" font-size="24" font-weight="bold" text-anchor="middle">PM</text>
    </g>
    
    <!-- Sleep Results -->
    <g transform="translate(90, 0)">
      <text x="0" y="-45" fill="#333" font-size="12" text-anchor="start">Optimal Bedtimes:</text>
      
      <rect x="-10" y="-30" width="70" height="30" rx="15" class="start"/>
      <text x="25" y="-10" fill="#6c5ce7" font-size="14" text-anchor="middle">8:00 PM</text>
      
      <rect x="-10" y="10" width="70" height="30" rx="15" class="start"/>
      <text x="25" y="30" fill="#6c5ce7" font-size="14" text-anchor="middle">9:30 PM</text>
      
      <rect x="-10" y="50" width="70" height="30" rx="15" class="start"/>
      <text x="25" y="70" fill="#6c5ce7" font-size="14" text-anchor="middle">11:00 PM</text>
    </g>
    
    <!-- Sleep Cycle Visualization -->
    <g transform="translate(0, 70)">
      <path d="M-180,0 C-150,-20 -120,20 -90,0 C-60,-20 -30,20 0,0 C30,-20 60,20 90,0 C120,-20 150,20 180,0" class="sleep-cycle"/>
      
      <!-- Cycle Labels -->
      <text x="-135" y="15" fill="#8b5cf6" font-size="10" text-anchor="middle">Cycle 1</text>
      <text x="-45" y="15" fill="#8b5cf6" font-size="10" text-anchor="middle">Cycle 2</text>
      <text x="45" y="15" fill="#8b5cf6" font-size="10" text-anchor="middle">Cycle 3</text>
      <text x="135" y="15" fill="#8b5cf6" font-size="10" text-anchor="middle">Cycle 4</text>
    </g>
  </g>
  
  <!-- Text Content -->
  <text x="300" y="65" fill="white" font-size="40" text-anchor="middle">Slumber</text>
  <text x="300" y="95" fill="white" font-size="16" text-anchor="middle" class="subtitle">Sleep Cycle Calculator</text>
</svg>